TITLE ""
FILE "P1Q_j_1870-1883.mp3" MP3
  TRACK 01 AUDIO
    TITLE "P1Q_j_1870-1883_01"
    INDEX 01 00:00:00
  TRACK 02 AUDIO
    TITLE "P1Q_j_1870-1883_02"
    INDEX 01 00:01:29
  TRACK 03 AUDIO
    TITLE "P1Q_j_1870-1883_03"
    INDEX 01 00:01:51
  TRACK 04 AUDIO
    TITLE "P1Q_j_1870-1883_04"
    INDEX 01 00:07:26
  TRACK 05 AUDIO
    TITLE "P1Q_j_1870-1883_05"
    INDEX 01 00:07:44
  TRACK 06 AUDIO
    TITLE "P1Q_j_1870-1883_06"
    INDEX 01 00:11:59
  TRACK 07 AUDIO
    TITLE "P1Q_j_1870-1883_07"
    INDEX 01 00:12:29
  TRACK 08 AUDIO
    TITLE "P1Q_j_1870-1883_08"
    INDEX 01 00:14:18
  TRACK 09 AUDIO
    TITLE "P1Q_j_1870-1883_09"
    INDEX 01 00:14:40
  TRACK 10 AUDIO
    TITLE "P1Q_j_1870-1883_10"
    INDEX 01 00:17:40
  TRACK 11 AUDIO
    TITLE "P1Q_j_1870-1883_11"
    INDEX 01 00:17:60
  TRACK 12 AUDIO
    TITLE "P1Q_j_1870-1883_12"
    INDEX 01 00:22:06
  TRACK 13 AUDIO
    TITLE "P1Q_j_1870-1883_13"
    INDEX 01 00:22:51
  TRACK 14 AUDIO
    TITLE "P1Q_j_1870-1883_14"
    INDEX 01 00:24:15
  TRACK 15 AUDIO
    TITLE "P1Q_j_1870-1883_15"
    INDEX 01 00:24:36
  TRACK 16 AUDIO
    TITLE "P1Q_j_1870-1883_16"
    INDEX 01 00:28:36
  TRACK 17 AUDIO
    TITLE "P1Q_j_1870-1883_17"
    INDEX 01 00:28:58
  TRACK 18 AUDIO
    TITLE "P1Q_j_1870-1883_18"
    INDEX 01 00:34:05
  TRACK 19 AUDIO
    TITLE "P1Q_j_1870-1883_19"
    INDEX 01 00:34:52
  TRACK 20 AUDIO
    TITLE "P1Q_j_1870-1883_20"
    INDEX 01 00:35:65
  TRACK 21 AUDIO
    TITLE "P1Q_j_1870-1883_21"
    INDEX 01 00:36:20
  TRACK 22 AUDIO
    TITLE "P1Q_j_1870-1883_22"
    INDEX 01 00:39:06
  TRACK 23 AUDIO
    TITLE "P1Q_j_1870-1883_23"
    INDEX 01 00:39:26
  TRACK 24 AUDIO
    TITLE "P1Q_j_1870-1883_24"
    INDEX 01 00:43:47
  TRACK 25 AUDIO
    TITLE "P1Q_j_1870-1883_25"
    INDEX 01 00:44:19
  TRACK 26 AUDIO
    TITLE "P1Q_j_1870-1883_26"
    INDEX 01 00:45:36
  TRACK 27 AUDIO
    TITLE "P1Q_j_1870-1883_27"
    INDEX 01 00:45:60
  TRACK 28 AUDIO
    TITLE "P1Q_j_1870-1883_28"
    INDEX 01 00:51:33
  TRACK 29 AUDIO
    TITLE "P1Q_j_1870-1883_29"
    INDEX 01 00:51:53
  TRACK 30 AUDIO
    TITLE "P1Q_j_1870-1883_30"
    INDEX 01 00:55:66
  TRACK 31 AUDIO
    TITLE "P1Q_j_1870-1883_31"
    INDEX 01 00:56:38
  TRACK 32 AUDIO
    TITLE "P1Q_j_1870-1883_32"
    INDEX 01 00:57:61
  TRACK 33 AUDIO
    TITLE "P1Q_j_1870-1883_33"
    INDEX 01 00:58:08
  TRACK 34 AUDIO
    TITLE "P1Q_j_1870-1883_34"
    INDEX 01 01:02:43
  TRACK 35 AUDIO
    TITLE "P1Q_j_1870-1883_35"
    INDEX 01 01:02:62
  TRACK 36 AUDIO
    TITLE "P1Q_j_1870-1883_36"
    INDEX 01 01:06:56
  TRACK 37 AUDIO
    TITLE "P1Q_j_1870-1883_37"
    INDEX 01 01:07:28
  TRACK 38 AUDIO
    TITLE "P1Q_j_1870-1883_38"
    INDEX 01 01:08:55
  TRACK 39 AUDIO
    TITLE "P1Q_j_1870-1883_39"
    INDEX 01 01:09:02
  TRACK 40 AUDIO
    TITLE "P1Q_j_1870-1883_40"
    INDEX 01 01:13:48
  TRACK 41 AUDIO
    TITLE "P1Q_j_1870-1883_41"
    INDEX 01 01:13:68
  TRACK 42 AUDIO
    TITLE "P1Q_j_1870-1883_42"
    INDEX 01 01:19:24
  TRACK 43 AUDIO
    TITLE "P1Q_j_1870-1883_43"
    INDEX 01 01:19:71
  TRACK 44 AUDIO
    TITLE "P1Q_j_1870-1883_44"
    INDEX 01 01:21:13
  TRACK 45 AUDIO
    TITLE "P1Q_j_1870-1883_45"
    INDEX 01 01:21:34
  TRACK 46 AUDIO
    TITLE "P1Q_j_1870-1883_46"
    INDEX 01 01:27:31
  TRACK 47 AUDIO
    TITLE "P1Q_j_1870-1883_47"
    INDEX 01 01:27:51
  TRACK 48 AUDIO
    TITLE "P1Q_j_1870-1883_48"
    INDEX 01 01:32:54
  TRACK 49 AUDIO
    TITLE "P1Q_j_1870-1883_49"
    INDEX 01 01:33:26
  TRACK 50 AUDIO
    TITLE "P1Q_j_1870-1883_50"
    INDEX 01 01:34:58
  TRACK 51 AUDIO
    TITLE "P1Q_j_1870-1883_51"
    INDEX 01 01:35:03
  TRACK 52 AUDIO
    TITLE "P1Q_j_1870-1883_52"
    INDEX 01 01:39:40
  TRACK 53 AUDIO
    TITLE "P1Q_j_1870-1883_53"
    INDEX 01 01:39:60
  TRACK 54 AUDIO
    TITLE "P1Q_j_1870-1883_54"
    INDEX 01 01:45:15
  TRACK 55 AUDIO
    TITLE "P1Q_j_1870-1883_55"
    INDEX 01 01:45:60
  TRACK 56 AUDIO
    TITLE "P1Q_j_1870-1883_56"
    INDEX 01 01:47:32
  TRACK 57 AUDIO
    TITLE "P1Q_j_1870-1883_57"
    INDEX 01 01:47:57
  TRACK 58 AUDIO
    TITLE "P1Q_j_1870-1883_58"
    INDEX 01 01:51:51
  TRACK 59 AUDIO
    TITLE "P1Q_j_1870-1883_59"
    INDEX 01 01:51:71
  TRACK 60 AUDIO
    TITLE "P1Q_j_1870-1883_60"
    INDEX 01 01:55:21
  TRACK 61 AUDIO
    TITLE "P1Q_j_1870-1883_61"
    INDEX 01 01:55:66
  TRACK 62 AUDIO
    TITLE "P1Q_j_1870-1883_62"
    INDEX 01 01:57:22
  TRACK 63 AUDIO
    TITLE "P1Q_j_1870-1883_63"
    INDEX 01 01:57:44
  TRACK 64 AUDIO
    TITLE "P1Q_j_1870-1883_64"
    INDEX 01 02:01:59
  TRACK 65 AUDIO
    TITLE "P1Q_j_1870-1883_65"
    INDEX 01 02:02:04
  TRACK 66 AUDIO
    TITLE "P1Q_j_1870-1883_66"
    INDEX 01 02:05:39
  TRACK 67 AUDIO
    TITLE "P1Q_j_1870-1883_67"
    INDEX 01 02:06:09
  TRACK 68 AUDIO
    TITLE "P1Q_j_1870-1883_68"
    INDEX 01 02:07:56
  TRACK 69 AUDIO
    TITLE "P1Q_j_1870-1883_69"
    INDEX 01 02:08:02
  TRACK 70 AUDIO
    TITLE "P1Q_j_1870-1883_70"
    INDEX 01 02:12:24
  TRACK 71 AUDIO
    TITLE "P1Q_j_1870-1883_71"
    INDEX 01 02:12:41
  TRACK 72 AUDIO
    TITLE "P1Q_j_1870-1883_72"
    INDEX 01 02:17:33
  TRACK 73 AUDIO
    TITLE "P1Q_j_1870-1883_73"
    INDEX 01 02:18:03
  TRACK 74 AUDIO
    TITLE "P1Q_j_1870-1883_74"
    INDEX 01 02:19:20
  TRACK 75 AUDIO
    TITLE "P1Q_j_1870-1883_75"
    INDEX 01 02:19:41
  TRACK 76 AUDIO
    TITLE "P1Q_j_1870-1883_76"
    INDEX 01 02:25:64
  TRACK 77 AUDIO
    TITLE "P1Q_j_1870-1883_77"
    INDEX 01 02:26:08
  TRACK 78 AUDIO
    TITLE "P1Q_j_1870-1883_78"
    INDEX 01 02:29:50
  TRACK 79 AUDIO
    TITLE "P1Q_j_1870-1883_79"
    INDEX 01 02:30:18
  TRACK 80 AUDIO
    TITLE "P1Q_j_1870-1883_80"
    INDEX 01 02:31:58
  TRACK 81 AUDIO
    TITLE "P1Q_j_1870-1883_81"
    INDEX 01 02:32:05
  TRACK 82 AUDIO
    TITLE "P1Q_j_1870-1883_82"
    INDEX 01 02:38:51
  TRACK 83 AUDIO
    TITLE "P1Q_j_1870-1883_83"
    INDEX 01 02:38:68
  TRACK 84 AUDIO
    TITLE "P1Q_j_1870-1883_84"
    INDEX 01 02:43:60
